<svg width="16" height="16" viewBox="0 0 16 16" fill="none" xmlns="http://www.w3.org/2000/svg">
<g clip-path="url(#clip0_8570_348)">
<path d="M8.00002 15.3334C3.95002 15.3334 0.666687 12.05 0.666687 8.00005C0.666687 3.95005 3.95002 0.666718 8.00002 0.666718C12.05 0.666718 15.3334 3.95005 15.3334 8.00005C15.3334 12.05 12.05 15.3334 8.00002 15.3334Z" fill="#F54A45"/>
<path d="M6.01683 5.07416L8.00016 7.05749L9.98349 5.07416C10.046 5.01167 10.1308 4.97656 10.2192 4.97656C10.3075 4.97656 10.3923 5.01167 10.4548 5.07416L10.9262 5.54549C10.9886 5.608 11.0238 5.69277 11.0238 5.78116C11.0238 5.86955 10.9886 5.95432 10.9262 6.01682L8.94283 8.00016L10.9262 9.98349C10.9886 10.046 11.0238 10.1308 11.0238 10.2192C11.0238 10.3075 10.9886 10.3923 10.9262 10.4548L10.4548 10.9262C10.3923 10.9886 10.3075 11.0238 10.2192 11.0238C10.1308 11.0238 10.046 10.9886 9.98349 10.9262L8.00016 8.94282L6.01683 10.9262C5.95432 10.9886 5.86955 11.0238 5.78116 11.0238C5.69277 11.0238 5.608 10.9886 5.54549 10.9262L5.07416 10.4548C5.01167 10.3923 4.97656 10.3075 4.97656 10.2192C4.97656 10.1308 5.01167 10.046 5.07416 9.98349L7.05749 8.00016L5.07416 6.01682C5.01167 5.95432 4.97656 5.86955 4.97656 5.78116C4.97656 5.69277 5.01167 5.608 5.07416 5.54549L5.54549 5.07416C5.608 5.01167 5.69277 4.97656 5.78116 4.97656C5.86955 4.97656 5.95432 5.01167 6.01683 5.07416Z" fill="white"/>
</g>
<defs>
<clipPath id="clip0_8570_348">
<rect width="16" height="16" fill="white"/>
</clipPath>
</defs>
</svg>
