<svg width="16" height="16" viewBox="0 0 16 16" xmlns="http://www.w3.org/2000/svg">
<path d="M6 13C5.8 13 5.6 12.8667 5.53333 12.6667L5 10.8C4.73333 9.93333 4.13333 9.33333 3.26667 9.06667L1.33333 8.46667C1.13333 8.4 1 8.2 1 8C1 7.8 1.13333 7.6 1.33333 7.53333L3.2 7C4.06667 6.73333 4.66667 6.13333 4.93333 5.26667L5.53333 3.33333C5.6 3.13333 5.8 3 6 3C6.2 3 6.4 3.13333 6.46667 3.33333L7 5.2C7.26667 6.06667 7.86667 6.66667 8.73333 6.93333L10.6 7.46667C10.8 7.53333 10.9333 7.73333 10.9333 7.93333C10.9333 8.13333 10.8 8.33333 10.6 8.4L8.73333 8.93333C7.86667 9.2 7.26667 9.8 7 10.6667L6.46667 12.6667C6.4 12.8667 6.2 13 6 13ZM12 7C11.8 7 11.6 6.86667 11.5333 6.6L11.3333 5.93333C11.2 5.33333 10.6667 4.8 10.0667 4.66667L9.4 4.46667C9.2 4.4 9 4.2 9 4C9 3.8 9.13333 3.6 9.4 3.53333L10.0667 3.33333C10.6667 3.2 11.2 2.66667 11.3333 2.06667L11.5333 1.4C11.6 1.2 11.8 1 12 1C12.2 1 12.4 1.13333 12.4667 1.4L12.6667 2.06667C12.8 2.66667 13.3333 3.2 13.9333 3.33333L14.6 3.53333C14.8 3.6 15 3.8 15 4C15 4.2 14.8667 4.4 14.6 4.46667L13.9333 4.66667C13.3333 4.8 12.8 5.33333 12.6667 5.93333L12.4667 6.6C12.4 6.86667 12.2 7 12 7ZM11 15C10.8 15 10.6 14.8667 10.5333 14.6667L10.2667 13.8667C10.2 13.6 9.93333 13.3333 9.66667 13.2667L8.86667 13C8.66667 12.9333 8.53333 12.7333 8.53333 12.5333C8.53333 12.3333 8.66667 12.1333 8.86667 12.0667L9.66667 11.8C9.93333 11.7333 10.2 11.4667 10.2667 11.2L10.5333 10.4C10.6 10.2 10.8 10.0667 11 10.0667C11.2 10.0667 11.4 10.2 11.4667 10.4L11.7333 11.2C11.8 11.4667 12.0667 11.7333 12.3333 11.8L13.1333 12.0667C13.3333 12.1333 13.4667 12.3333 13.4667 12.5333C13.4667 12.7333 13.3333 12.9333 13.1333 13L12.3333 13.2667C12.0667 13.3333 11.8 13.6 11.7333 13.8667L11.4667 14.6667C11.4 14.8667 11.2 15 11 15Z"/>
</svg>
