<svg width="16" height="16" viewBox="0 0 16 16" fill="none" xmlns="http://www.w3.org/2000/svg">
<g clip-path="url(#clip0_8570_412)">
<path fill-rule="evenodd" clip-rule="evenodd" d="M0.666687 7.99999C0.666687 12.0505 3.9495 15.3333 8.00002 15.3333C12.0505 15.3333 15.3334 12.0505 15.3334 7.99999C15.3334 3.94947 12.0505 0.666656 8.00002 0.666656C3.9495 0.666656 0.666687 3.94947 0.666687 7.99999Z" fill="#34C724"/>
<path d="M10.7621 5.98431L7.22639 9.51998L5.49305 7.78665C5.43054 7.72416 5.34578 7.68905 5.25739 7.68905C5.169 7.68905 5.08423 7.72416 5.02172 7.78665L4.55072 8.25831C4.48823 8.32082 4.45312 8.40559 4.45312 8.49398C4.45312 8.58237 4.48823 8.66714 4.55072 8.72964L6.99072 11.17C7.05323 11.2325 7.138 11.2676 7.22639 11.2676C7.31477 11.2676 7.39954 11.2325 7.46205 11.17L11.7047 6.92731C11.7672 6.8648 11.8023 6.78003 11.8023 6.69165C11.8023 6.60326 11.7672 6.51849 11.7047 6.45598L11.2334 5.98431C11.1709 5.92182 11.0861 5.88672 10.9977 5.88672C10.9093 5.88672 10.8246 5.92182 10.7621 5.98431Z" fill="white"/>
</g>
<defs>
<clipPath id="clip0_8570_412">
<rect width="16" height="16" fill="white"/>
</clipPath>
</defs>
</svg>
