<svg width="16" height="16" viewBox="0 0 16 16" fill="none" xmlns="http://www.w3.org/2000/svg">
<path d="M8.1153 8.65984L9.55944 10.0713C9.69262 10.2015 9.69262 10.4125 9.55944 10.5427L9.07712 11.0141C8.94393 11.1443 8.72799 11.1443 8.5948 11.0141L6.42437 8.89279L5.94206 8.42139C5.67568 8.16104 5.67568 7.73893 5.94206 7.47858L8.5948 4.88585C8.72799 4.75568 8.94393 4.75568 9.07712 4.88585L9.55944 5.35726C9.69262 5.48743 9.69262 5.69849 9.55944 5.82866L7.99015 7.36244L14.3241 7.33506C14.3251 7.33505 14.3261 7.33505 14.327 7.33505C14.5154 7.33582 14.6674 7.48567 14.6667 7.66977L14.664 8.30105C14.6632 8.48403 14.5117 8.63219 14.3244 8.633L8.1153 8.65984ZM10.5417 2.66665H2.69753V13.3333H10.5417C10.73 13.3333 10.8827 13.4826 10.8827 13.6666V14.3333C10.8827 14.5174 10.73 14.6666 10.5417 14.6666H2.01543C1.63871 14.6666 1.33333 14.3682 1.33333 14V1.99998C1.33333 1.63179 1.63871 1.33331 2.01543 1.33331H10.5417C10.73 1.33331 10.8827 1.48255 10.8827 1.66665V2.33331C10.8827 2.51741 10.73 2.66665 10.5417 2.66665Z" fill="#1F2329"/>
</svg>
