<svg width="16" height="16" viewBox="0 0 16 16" fill="none" xmlns="http://www.w3.org/2000/svg">
<g clip-path="url(#clip0_7974_67866)">
<g clip-path="url(#clip1_7974_67866)">
<path fill-rule="evenodd" clip-rule="evenodd" d="M8.00002 14C11.3137 14 14 11.3137 14 7.99999C14 4.68628 11.3137 1.99999 8.00002 1.99999C4.68631 1.99999 2.00002 4.68628 2.00002 7.99999C2.00002 11.3137 4.68631 14 8.00002 14ZM8.00002 15.3333C3.94993 15.3333 0.666687 12.0501 0.666687 7.99999C0.666687 3.9499 3.94993 0.666656 8.00002 0.666656C12.0501 0.666656 15.3334 3.9499 15.3334 7.99999C15.3334 12.0501 12.0501 15.3333 8.00002 15.3333ZM7.66669 10.6667H8.33335C8.51745 10.6667 8.66669 10.8159 8.66669 11V11.6667C8.66669 11.8507 8.51745 12 8.33335 12H7.66669C7.48259 12 7.33335 11.8507 7.33335 11.6667V11C7.33335 10.8159 7.48259 10.6667 7.66669 10.6667ZM5.36659 6.1878C5.37506 6.11328 5.38374 6.0513 5.39262 6.00184C5.52258 5.27811 5.85171 4.74588 6.38003 4.40513C6.7938 4.13504 7.30223 3.99999 7.90534 3.99999C8.69781 3.99999 9.35614 4.1919 9.88036 4.57572C10.4046 4.95954 10.6667 5.52815 10.6667 6.28158C10.6667 6.74359 10.5527 7.13274 10.3248 7.44903C10.1916 7.64094 9.93559 7.88616 9.55689 8.18469L9.18345 8.47788C8.98007 8.63781 8.84508 8.82438 8.77845 9.03762C8.76032 9.09581 8.74439 9.20399 8.73065 9.36215C8.7157 9.53443 8.57149 9.66666 8.39857 9.66666H7.6523C7.4682 9.66665 7.31896 9.51742 7.31896 9.33332C7.31896 9.32307 7.31944 9.31282 7.32038 9.30261C7.36331 8.83868 7.40927 8.54511 7.45827 8.42191C7.54944 8.19268 7.78437 7.92881 8.16307 7.63028L8.54703 7.32642C8.67326 7.23047 9.32373 6.77242 9.32373 6.36688C9.32373 5.96133 9.25308 5.81217 9.04946 5.58959C8.84584 5.36702 8.38748 5.29538 7.97372 5.29538C7.56697 5.29538 7.21938 5.4034 7.04932 5.67705C6.97055 5.80379 6.90615 5.939 6.85969 6.07695C6.84142 6.13122 6.82522 6.1995 6.81111 6.28179C6.78367 6.44181 6.64493 6.55878 6.48258 6.55878H5.6978C5.5137 6.55879 5.36446 6.40955 5.36446 6.22545C5.36446 6.21287 5.36517 6.2003 5.36659 6.1878Z" fill="#646A73"/>
</g>
</g>
<defs>
<clipPath id="clip0_7974_67866">
<rect width="16" height="16" rx="4" fill="white"/>
</clipPath>
<clipPath id="clip1_7974_67866">
<rect width="16" height="16" fill="white"/>
</clipPath>
</defs>
</svg>
