<?xml version="1.0" standalone="no"?><!DOCTYPE svg PUBLIC "-//W3C//DTD SVG 1.1//EN" "http://www.w3.org/Graphics/SVG/1.1/DTD/svg11.dtd"><svg t="1763971949643" class="icon" viewBox="0 0 1024 1024" version="1.1" xmlns="http://www.w3.org/2000/svg" p-id="8822" xmlns:xlink="http://www.w3.org/1999/xlink" width="200" height="200"><path d="M0 0v1024h1024V0H0z m907.636364 907.636364H116.363636V116.363636h791.272728v791.272728z" p-id="8823"></path><path d="M449.163636 572.509091h116.363637v109.381818h-116.363637zM509.672727 351.418182c25.6 2.327273 37.236364 11.636364 39.563637 32.581818 0 13.963636-11.636364 27.927273-34.909091 37.236364-44.218182 20.945455-62.836364 55.854545-58.181818 109.381818H558.545455c-4.654545-20.945455 11.636364-41.890909 46.545454-60.509091 39.563636-23.272727 62.836364-53.527273 62.836364-88.436364-4.654545-72.145455-53.527273-109.381818-151.272728-114.036363-100.072727 4.654545-151.272727 46.545455-158.254545 128h116.363636c-2.327273-27.927273 9.309091-41.890909 34.909091-44.218182z" p-id="8824"></path></svg>