<svg width="16" height="16" viewBox="0 0 16 16" fill="none" xmlns="http://www.w3.org/2000/svg">
<path fill-rule="evenodd" clip-rule="evenodd" d="M8.28326 0.387285C8.10024 0.33382 7.90574 0.333795 7.72271 0.387213L2.05322 2.0418C1.62663 2.1663 1.33337 2.55737 1.33337 3.00175V6.34282C1.33337 10.367 3.88351 13.9439 7.67689 15.2607C7.88662 15.3335 8.11525 15.3335 8.32497 15.2607C12.1174 13.9438 14.6667 10.3677 14.6667 6.34448V3.00169C14.6667 2.5574 14.3736 2.16638 13.9471 2.0418L8.28326 0.387285ZM2.66671 3.25171L8.00282 1.69442L13.3334 3.25158V6.34448C13.3334 9.75911 11.1948 12.7988 8.00088 13.9609C4.80601 12.7988 2.66671 9.75836 2.66671 6.34282V3.25171Z" fill="#646A73"/>
<path fill-rule="evenodd" clip-rule="evenodd" d="M8 8C6.89533 8 6 7.10333 6 6C6 4.89667 6.89533 4 8 4C9.10467 4 10 4.89667 10 6C10 7.10333 9.10467 8 8 8ZM8 6.66667C8.36833 6.66667 8.66667 6.36667 8.66667 6C8.66667 5.63333 8.36833 5.33333 8 5.33333C7.63167 5.33333 7.33333 5.63333 7.33333 6C7.33333 6.36667 7.63167 6.66667 8 6.66667Z" fill="#646A73"/>
<path d="M8.66671 11.6735C8.66671 11.8538 8.51747 12 8.33337 12H7.66671C7.48261 12 7.33337 11.8538 7.33337 11.6735L7.33337 6.9932C7.33337 6.81286 7.48261 6.66667 7.66671 6.66667H8.33337C8.51747 6.66667 8.66671 6.81286 8.66671 6.9932V11.6735Z" fill="#646A73"/>
<path d="M8.28571 10.0001C8.12792 10.0001 8 9.85084 8 9.66675V9.00008C8 8.81599 8.12792 8.66675 8.28571 8.66675H9.71429C9.87208 8.66675 10 8.81599 10 9.00008V9.66675C10 9.85084 9.87208 10.0001 9.71429 10.0001H8.28571Z" fill="#646A73"/>
</svg>
