<svg width="32" height="32" viewBox="0 0 32 32" fill="" xmlns="http://www.w3.org/2000/svg">
<circle cx="16" cy="16" r="16.5" fill="white" stroke="#DEE0E3"/>
<path d="M7.49184 12.72C8.57184 12.72 9.43184 13.07 10.0618 13.78C10.6618 14.45 10.9618 15.34 10.9618 16.44C10.9618 17.53 10.6618 18.41 10.0618 19.09C9.43184 19.79 8.57184 20.14 7.49184 20.14C6.40184 20.14 5.54184 19.78 4.92184 19.08C4.32184 18.4 4.03184 17.52 4.03184 16.44C4.03184 15.35 4.32184 14.47 4.92184 13.79C5.54184 13.07 6.40184 12.72 7.49184 12.72ZM7.49184 13.68C6.73184 13.68 6.14184 13.93 5.72184 14.45C5.32184 14.94 5.12184 15.6 5.12184 16.44C5.12184 17.27 5.32184 17.93 5.72184 18.42C6.14184 18.92 6.73184 19.18 7.49184 19.18C8.25184 19.18 8.84184 18.93 9.25184 18.44C9.65184 17.96 9.86184 17.29 9.86184 16.44C9.86184 15.58 9.65184 14.91 9.25184 14.42C8.84184 13.92 8.25184 13.68 7.49184 13.68ZM12.0862 12.86H13.1662V20H12.0862V12.86ZM14.5857 12.86H17.1857C18.3357 12.86 19.2057 13.18 19.8057 13.83C20.3657 14.43 20.6457 15.3 20.6457 16.43C20.6457 17.55 20.3557 18.42 19.7857 19.04C19.1857 19.68 18.3157 20 17.1657 20H14.5857V12.86ZM15.6757 13.79V19.07H16.9657C17.8657 19.07 18.5357 18.85 18.9557 18.42C19.3657 17.99 19.5757 17.33 19.5757 16.43C19.5757 15.51 19.3657 14.85 18.9657 14.43C18.5457 14 17.8857 13.79 16.9857 13.79H15.6757ZM24.8537 12.72C25.6837 12.72 26.3737 12.93 26.9137 13.37C27.4337 13.79 27.7537 14.37 27.8637 15.09H26.8037C26.6837 14.61 26.4537 14.25 26.1137 14.02C25.7737 13.79 25.3537 13.68 24.8337 13.68C24.0637 13.68 23.4837 13.94 23.0937 14.47C22.7237 14.95 22.5437 15.61 22.5437 16.44C22.5437 17.3 22.7237 17.96 23.0837 18.43C23.4637 18.93 24.0537 19.18 24.8537 19.18C25.3737 19.18 25.8137 19.05 26.1537 18.79C26.5137 18.51 26.7637 18.09 26.9037 17.53H27.9637C27.8037 18.36 27.4337 19.01 26.8437 19.48C26.2937 19.92 25.6337 20.14 24.8637 20.14C23.6937 20.14 22.8137 19.76 22.2237 19.02C21.7037 18.38 21.4537 17.52 21.4537 16.44C21.4537 15.38 21.7137 14.52 22.2537 13.85C22.8537 13.09 23.7137 12.72 24.8537 12.72Z" fill=""/>
</svg>
