<?xml version="1.0" standalone="no"?><!DOCTYPE svg PUBLIC "-//W3C//DTD SVG 1.1//EN" "http://www.w3.org/Graphics/SVG/1.1/DTD/svg11.dtd"><svg t="1758525435141" class="icon" viewBox="0 0 1024 1024" version="1.1" xmlns="http://www.w3.org/2000/svg" p-id="9077" xmlns:xlink="http://www.w3.org/1999/xlink" width="256" height="256"><path d="M155 487.3c-34.6-8.5-40-13.3-40-28.8 0-19.8 11.5-25.2 38-25.2 19.8 0 46.9 4.4 58.4 8.5v-42.5c-12.5-4.4-33.9-8.5-60.4-8.5-54.7 0-86.3 19-86.3 69 0 42.1 14.6 56 64.8 67.9 36.1 8.8 42.8 15.2 42.8 33.3 0 21.1-10.3 28.2-41.5 28.2-24.1 0-51.5-4.4-66.5-9.6v45.2c14.2 4.1 41.1 8.5 68.6 8.5 64.8 0 90.6-24.8 90.6-70.9 0.1-44.2-12.1-61.3-68.5-75.1zM331 394.1l-87.9 235.7h53.6l20.4-58.4h95.7l20 58.4h54.6l-87.3-235.7H331z m1.3 134.5l31.2-89.4h4.1l30.6 89.4h-65.9zM680 394.2L639.2 527h-2.1l-39-132.8h-83.8v235.7h50.3V444.4h2.1l44.8 140.9h51.7l45.5-140.9h2.1v185.4h50.7V394.2zM865.8 585V394.1h-51.6v235.7h145.4V585z" p-id="9078" fill="#3370ff"></path></svg>