<svg width="32" height="32" viewBox="0 0 32 32" fill="" xmlns="http://www.w3.org/2000/svg">
<circle cx="16" cy="16" r="16.5" fill="white" stroke="#DEE0E3"/>
<mask id="mask0_3062_184766" style="mask-type:alpha" maskUnits="userSpaceOnUse" x="1" y="1" width="30" height="30">
<circle cx="16" cy="16" r="15" fill="white"/>
</mask>
<g mask="url(#mask0_3062_184766)">
<path d="M9.53633 12.72C10.3663 12.72 11.0563 12.93 11.5963 13.37C12.1163 13.79 12.4363 14.37 12.5463 15.09H11.4863C11.3663 14.61 11.1363 14.25 10.7963 14.02C10.4563 13.79 10.0363 13.68 9.51633 13.68C8.74633 13.68 8.16633 13.94 7.77633 14.47C7.40633 14.95 7.22633 15.61 7.22633 16.44C7.22633 17.3 7.40633 17.96 7.76633 18.43C8.14633 18.93 8.73633 19.18 9.53633 19.18C10.0563 19.18 10.4963 19.05 10.8363 18.79C11.1963 18.51 11.4463 18.09 11.5863 17.53H12.6463C12.4863 18.36 12.1163 19.01 11.5263 19.48C10.9763 19.92 10.3163 20.14 9.54633 20.14C8.37633 20.14 7.49633 19.76 6.90633 19.02C6.38633 18.38 6.13633 17.52 6.13633 16.44C6.13633 15.38 6.39633 14.52 6.93633 13.85C7.53633 13.09 8.39633 12.72 9.53633 12.72ZM15.8008 12.86H17.0408L19.7908 20H18.6208L17.9508 18.16H14.8808L14.2108 20H13.0508L15.8008 12.86ZM15.2108 17.26H17.6208L16.4408 14.03H16.4008L15.2108 17.26ZM22.9891 12.72C23.8191 12.72 24.4691 12.89 24.9391 13.25C25.4391 13.62 25.7191 14.19 25.7891 14.97H24.7091C24.6091 14.51 24.4291 14.17 24.1491 13.97C23.8691 13.76 23.4691 13.66 22.9291 13.66C22.4591 13.66 22.0991 13.73 21.8491 13.87C21.5391 14.03 21.3891 14.29 21.3891 14.65C21.3891 14.97 21.5591 15.22 21.9191 15.41C22.0791 15.5 22.4891 15.65 23.1591 15.85C24.1191 16.15 24.7491 16.38 25.0291 16.55C25.6391 16.92 25.9491 17.43 25.9491 18.09C25.9491 18.73 25.6991 19.23 25.1991 19.6C24.6991 19.96 23.9991 20.14 23.0991 20.14C22.2291 20.14 21.5491 19.96 21.0591 19.62C20.4691 19.2 20.1491 18.54 20.0891 17.64H21.1691C21.2491 18.2 21.4491 18.61 21.7691 18.85C22.0591 19.07 22.4991 19.18 23.0991 19.18C23.6391 19.18 24.0691 19.08 24.3891 18.9C24.7091 18.72 24.8691 18.47 24.8691 18.15C24.8691 17.75 24.6391 17.44 24.1891 17.21C24.0291 17.13 23.5591 16.97 22.7691 16.73C21.8891 16.45 21.3491 16.26 21.1291 16.14C20.5791 15.81 20.3091 15.33 20.3091 14.71C20.3091 14.08 20.5691 13.59 21.0991 13.23C21.5991 12.89 22.2291 12.72 22.9891 12.72Z" fill=""/>
</g>
</svg>
