<svg width="32" height="32" viewBox="0 0 32 32" fill="" xmlns="http://www.w3.org/2000/svg">
<circle cx="16" cy="16" r="16.5" fill="white" stroke="#DEE0E3"/>
<path d="M4.86144 13.176C5.72544 13.176 6.41344 13.456 6.91744 14.024C7.39744 14.56 7.63744 15.272 7.63744 16.152C7.63744 17.024 7.39744 17.728 6.91744 18.272C6.41344 18.832 5.72544 19.112 4.86144 19.112C3.98944 19.112 3.30144 18.824 2.80544 18.264C2.32544 17.72 2.09344 17.016 2.09344 16.152C2.09344 15.28 2.32544 14.576 2.80544 14.032C3.30144 13.456 3.98944 13.176 4.86144 13.176ZM4.86144 13.944C4.25344 13.944 3.78144 14.144 3.44544 14.56C3.12544 14.952 2.96544 15.48 2.96544 16.152C2.96544 16.816 3.12544 17.344 3.44544 17.736C3.78144 18.136 4.25344 18.344 4.86144 18.344C5.46944 18.344 5.94144 18.144 6.26944 17.752C6.58944 17.368 6.75744 16.832 6.75744 16.152C6.75744 15.464 6.58944 14.928 6.26944 14.536C5.94144 14.136 5.46944 13.944 4.86144 13.944ZM10.1609 13.288H11.1529L13.3529 19H12.4169L11.8809 17.528H9.42494L8.88894 19H7.96094L10.1609 13.288ZM9.68894 16.808H11.6169L10.6729 14.224H10.6409L9.68894 16.808ZM13.8316 14.864H14.6796V17.384C14.6796 17.736 14.7516 17.992 14.9036 18.152C15.0476 18.312 15.2876 18.4 15.6156 18.4C15.8396 18.4 16.0396 18.304 16.2316 18.128C16.4236 17.944 16.5596 17.696 16.6316 17.392V14.864H17.4796V19H16.6316V18.44C16.2796 18.888 15.8476 19.112 15.3276 19.112C14.3276 19.112 13.8316 18.552 13.8316 17.44V14.864ZM19.7048 13.528V14.864H20.6488V15.568H19.7048V17.968C19.7048 18.08 19.7288 18.16 19.7768 18.216C19.8248 18.264 19.8968 18.296 20.0008 18.296H20.5448V19H19.8648C19.5128 19 19.2488 18.904 19.0888 18.72C18.9288 18.544 18.8568 18.296 18.8568 17.968V15.568H18.0888V14.864H18.8568V13.88L19.7048 13.528ZM21.3316 13.176H22.1796V15.448C22.3316 15.208 22.5236 15.024 22.7556 14.912C22.9636 14.8 23.1956 14.752 23.4596 14.752C23.9556 14.752 24.3316 14.896 24.5876 15.192C24.8276 15.472 24.9476 15.888 24.9476 16.432V19H24.0996V16.576C24.0996 16.208 24.0196 15.936 23.8756 15.744C23.7156 15.544 23.4676 15.448 23.1476 15.448C22.8596 15.448 22.6276 15.56 22.4516 15.792C22.2676 16.024 22.1796 16.32 22.1796 16.68V19H21.3316V13.176ZM27.9177 13.176C28.4617 13.176 28.9177 13.328 29.2697 13.648C29.6137 13.968 29.7897 14.376 29.7897 14.88C29.7897 15.376 29.5977 15.824 29.2297 16.232C29.0057 16.464 28.6137 16.768 28.0457 17.152C27.4297 17.56 27.0617 17.92 26.9417 18.232H29.7977V19H25.8617C25.8617 18.432 26.0457 17.936 26.4297 17.504C26.6377 17.256 27.0697 16.912 27.7177 16.464C28.1017 16.192 28.3737 15.976 28.5337 15.808C28.7897 15.52 28.9257 15.208 28.9257 14.872C28.9257 14.552 28.8377 14.312 28.6617 14.152C28.4857 13.992 28.2217 13.912 27.8857 13.912C27.5257 13.912 27.2537 14.032 27.0697 14.28C26.8777 14.52 26.7817 14.864 26.7657 15.328H25.8937C25.9017 14.688 26.0857 14.176 26.4457 13.792C26.8137 13.376 27.3097 13.176 27.9177 13.176Z" fill=""/>
</svg>
