<svg width="32" height="32" viewBox="0 0 32 32" fill="" xmlns="http://www.w3.org/2000/svg">
<circle cx="16" cy="16" r="16.5" fill="white" stroke="#DEE0E3"/>
<path d="M3.53105 12.86H4.61105V19.07H8.54106V20H3.53105V12.86ZM9.43926 12.86H12.0393C13.1893 12.86 14.0593 13.18 14.6593 13.83C15.2193 14.43 15.4993 15.3 15.4993 16.43C15.4993 17.55 15.2093 18.42 14.6393 19.04C14.0393 19.68 13.1693 20 12.0193 20H9.43926V12.86ZM10.5293 13.79V19.07H11.8193C12.7193 19.07 13.3893 18.85 13.8093 18.42C14.2193 17.99 14.4293 17.33 14.4293 16.43C14.4293 15.51 14.2193 14.85 13.8193 14.43C13.3993 14 12.7393 13.79 11.8393 13.79H10.5293ZM18.6572 12.86H19.8972L22.6472 20H21.4772L20.8072 18.16H17.7372L17.0672 20H15.9072L18.6572 12.86ZM18.0672 17.26H20.4772L19.2972 14.03H19.2572L18.0672 17.26ZM23.3455 12.86H26.3055C28.0055 12.86 28.8555 13.58 28.8555 15.03C28.8555 16.49 27.9955 17.22 26.2855 17.22H24.4355V20H23.3455V12.86ZM24.4355 13.79V16.29H26.2155C26.7555 16.29 27.1455 16.19 27.3955 15.99C27.6355 15.79 27.7655 15.47 27.7655 15.03C27.7655 14.59 27.6355 14.27 27.3855 14.09C27.1355 13.89 26.7455 13.79 26.2155 13.79H24.4355Z" fill=""/>
</svg>
