<svg width="16" height="16" viewBox="0 0 16 16" fill="none" xmlns="http://www.w3.org/2000/svg">
<path d="M7.98985 12.3334C10.1485 12.3334 12.1472 10.9603 14 7.99138C12.1948 5.03308 10.2007 3.66671 7.98985 3.66671C5.77975 3.66671 3.79281 5.03246 2 7.99136C3.84044 10.9609 5.83197 12.3334 7.98985 12.3334ZM1.00162 8.5934C0.786957 8.228 0.785505 7.77372 0.995211 7.40545C1.00268 7.39233 1.00984 7.37982 1.01663 7.36805C2.95201 4.0116 5.27617 2.33337 7.98914 2.33337C10.7132 2.33337 13.0517 4.02532 15.0048 7.40921C15.0106 7.41934 15.0168 7.43006 15.0232 7.44126C15.2207 7.78726 15.2192 8.21438 15.0171 8.55775C13.0126 11.9637 10.6699 13.6667 7.98914 13.6667C5.31775 13.6667 2.98858 11.9756 1.00162 8.5934ZM8 10.6667C6.52724 10.6667 5.33333 9.4728 5.33333 8.00004C5.33333 6.52728 6.52724 5.33337 8 5.33337C9.47276 5.33337 10.6667 6.52728 10.6667 8.00004C10.6667 9.4728 9.47276 10.6667 8 10.6667ZM8 9.33337C8.73637 9.33337 9.33333 8.73642 9.33333 8.00004C9.33333 7.26366 8.73637 6.66671 8 6.66671C7.26362 6.66671 6.66666 7.26366 6.66666 8.00004C6.66666 8.73642 7.26362 9.33337 8 9.33337Z" fill="#1F2329"/>
</svg>
